<?xml version="1.0" standalone="no"?>
<!DOCTYPE svg PUBLIC "-//W3C//DTD SVG 20010904//EN"
 "http://www.w3.org/TR/2001/REC-SVG-20010904/DTD/svg10.dtd">
<svg version="1.0" xmlns="http://www.w3.org/2000/svg"
 width="362.000000pt" height="362.000000pt" viewBox="0 0 362.000000 362.000000"
 preserveAspectRatio="xMidYMid meet">
<metadata>
Created by potrace 1.14, written by Peter Selinger 2001-2017
</metadata>
<g transform="translate(0.000000,362.000000) scale(0.100000,-0.100000)"
fill="#000000" stroke="none">
<path d="M1849 3615 c-3 -2 -23 -7 -45 -10 -21 -4 -77 -25 -124 -47 -65 -31
-100 -56 -150 -108 -76 -78 -90 -96 -90 -109 0 -5 -6 -16 -13 -23 -17 -17 -54
-121 -62 -173 -4 -31 -8 -708 -5 -1173 l0 -63 203 200 c111 109 281 277 377
371 96 95 264 260 373 368 l198 196 -4 56 c-25 293 -251 504 -553 516 -55 2
-103 2 -105 -1z"/>
<path d="M2915 3152 c-54 -4 -167 -38 -213 -64 -20 -12 -56 -37 -80 -56 l-42
-34 2 -549 c2 -302 0 -550 -4 -552 -4 -1 -3 -8 1 -16 7 -11 45 -14 184 -14
201 0 166 -14 312 123 196 185 331 327 351 370 50 104 52 111 67 225 4 28 -5
123 -16 170 -9 36 -40 110 -54 126 -7 8 -13 21 -13 27 0 7 -31 43 -69 81 -115
117 -269 175 -426 163z"/>
<path d="M1971 2365 c-271 -272 -489 -495 -485 -496 38 -4 978 -3 983 1 9 6
11 990 2 990 -3 0 -228 -223 -500 -495z"/>
<path d="M644 2382 c-262 -35 -463 -216 -512 -460 -8 -43 -7 -196 2 -232 3
-14 8 -35 10 -48 8 -37 66 -144 103 -190 53 -65 89 -96 162 -139 126 -74 174
-82 538 -83 l303 -1 0 578 0 578 -293 0 c-161 0 -302 -1 -313 -3z"/>
<path d="M1480 1740 c0 -7 985 -990 992 -990 10 0 5 981 -5 987 -12 7 -987 10
-987 3z"/>
<path d="M2589 1740 c-5 -3 -8 -165 -8 -360 0 -195 0 -364 0 -375 0 -11 0 -67
0 -125 1 -58 1 -114 0 -125 -3 -24 -3 -25 -1 -93 2 -47 6 -55 38 -82 165 -136
420 -160 602 -57 86 49 210 181 222 238 2 8 6 16 9 19 3 3 14 34 23 70 36 128
23 255 -40 388 -24 52 -56 88 -199 226 -258 250 -287 276 -304 277 -66 4 -335
3 -342 -1z"/>
<path d="M1360 1638 c-2 -346 2 -1148 5 -1168 2 -14 10 -44 19 -67 8 -24 13
-43 11 -43 -5 0 64 -119 79 -137 57 -67 127 -126 192 -161 171 -91 406 -80
573 28 93 60 153 128 218 247 16 28 43 134 49 189 l4 44 -570 570 c-313 313
-572 570 -575 570 -3 0 -5 -33 -5 -72z"/>
</g>
</svg>
